<?xml version="1.0" standalone="no"?>
<!DOCTYPE svg PUBLIC "-//W3C//DTD SVG 20010904//EN"
 "http://www.w3.org/TR/2001/REC-SVG-20010904/DTD/svg10.dtd">
<svg version="1.0" xmlns="http://www.w3.org/2000/svg"
 width="1280.000000pt" height="864.000000pt" viewBox="0 0 1280.000000 864.000000"
 preserveAspectRatio="xMidYMid meet">

<g transform="translate(0.000000,864.000000) scale(0.100000,-0.100000)"
fill="#000000" stroke="none">
<path d="M0 4320 l0 -4320 6400 0 6400 0 0 4320 0 4320 -6400 0 -6400 0 0
-4320z m8879 1041 c7 -5 11 -14 7 -19 -4 -6 -11 -37 -17 -69 -15 -86 -18 -92
-49 -108 -53 -27 -65 -14 -31 33 10 15 19 34 19 42 8 115 28 148 71 121z
m-305 -54 c44 -72 59 -116 46 -132 -17 -21 -36 -19 -54 6 -11 16 -21 20 -40
15 -29 -7 -29 -6 -26 64 3 84 39 106 74 47z m592 -41 c3 -8 -13 -44 -36 -79
-31 -51 -49 -68 -76 -77 -57 -19 -69 -8 -43 42 31 61 56 90 92 110 39 21 56
22 63 4z m-760 -137 c32 -16 46 -46 34 -69 -15 -28 -34 -25 -77 12 -59 51 -62
57 -37 83 15 14 18 14 38 0 11 -8 30 -20 42 -26z m495 -16 c113 -30 220 -139
255 -259 9 -32 17 -60 19 -61 1 -2 25 4 54 13 64 19 115 15 119 -8 4 -20 -50
-39 -118 -42 l-48 -1 -6 -57 c-3 -31 -12 -76 -20 -99 -8 -24 -14 -44 -13 -46
2 -1 25 14 53 33 64 46 99 60 196 80 110 22 255 16 321 -14 48 -21 50 -21 100
-4 55 18 208 24 259 9 15 -4 36 -19 45 -34 16 -24 18 -54 17 -280 -2 -297 -1
-295 -91 -313 -78 -17 -217 -9 -241 13 -10 9 -25 17 -33 17 -12 0 -11 2 1 10
13 8 13 10 -2 10 -9 0 -19 6 -21 13 -3 7 -6 4 -6 -6 -2 -32 -26 -12 -36 29 -5
21 -15 45 -21 51 -7 7 -20 35 -29 63 -9 27 -20 50 -25 50 -4 0 -10 7 -14 15
-4 10 4 8 25 -7 19 -14 28 -29 26 -40 -6 -22 18 -44 29 -27 4 7 2 15 -4 17 -7
2 -12 12 -12 22 0 32 -11 49 -27 43 -12 -5 -14 -1 -9 14 8 25 -14 50 -50 59
-13 3 -24 11 -24 16 0 19 -117 4 -141 -18 -32 -28 -49 -76 -48 -136 1 -109 40
-165 294 -430 278 -289 365 -464 365 -733 0 -127 -21 -200 -83 -297 -67 -104
-138 -151 -274 -182 -105 -23 -283 -22 -365 4 -80 25 -87 25 -116 -2 -21 -20
-34 -23 -111 -23 -73 0 -94 4 -136 26 -74 38 -78 50 -88 299 -11 258 -5 293
50 317 58 24 198 27 258 6 66 -24 85 -60 85 -161 l0 -73 46 -44 c66 -64 138
-72 211 -23 32 23 48 48 64 103 9 28 -5 209 -18 245 -4 8 -7 20 -8 25 -8 56
-93 144 -140 145 -29 1 -29 2 -7 11 13 5 20 13 17 19 -4 6 -10 8 -14 5 -5 -2
-13 7 -19 20 -7 14 -18 25 -27 25 -8 0 -15 5 -15 10 0 16 -142 160 -152 154
-4 -3 -6 1 -3 8 2 7 -10 24 -28 37 -18 14 -34 32 -34 41 -2 28 -44 89 -57 84
-13 -5 -44 33 -52 64 -24 97 -43 162 -49 171 -9 16 -36 -5 -29 -23 9 -23 -15
-65 -40 -72 -14 -3 -34 -21 -45 -40 -13 -22 -31 -36 -53 -42 -38 -10 -38 -10
-13 -127 26 -120 24 -324 -4 -439 -79 -318 -162 -441 -391 -582 -185 -113
-547 -205 -755 -191 -140 9 -150 25 -150 231 l0 151 80 5 80 5 6 90 c4 50 7
206 8 348 1 250 2 259 21 264 11 3 20 9 20 14 0 4 -9 13 -20 19 -19 10 -20 21
-20 304 l0 294 -70 4 c-41 2 -75 9 -82 17 -10 11 -10 12 0 7 7 -4 12 -1 12 7
0 8 -9 17 -20 20 -28 7 -26 43 3 51 l22 7 -24 12 c-22 10 -23 15 -19 87 8 138
25 146 298 143 177 -2 203 -4 284 -28 142 -41 252 -104 363 -208 18 -17 35
-28 38 -25 9 8 -30 113 -53 146 -23 32 -48 116 -55 184 -4 38 0 50 19 71 12
13 34 57 48 97 29 84 85 150 174 203 28 17 52 36 52 40 0 13 174 -2 241 -20z
m427 -80 c-4 -21 -120 -83 -155 -83 -16 0 -23 6 -23 19 0 14 18 29 62 50 70
35 121 41 116 14z m-985 -112 c21 -8 28 -17 25 -34 -4 -29 -54 -35 -102 -12
-34 16 -35 18 -20 41 17 25 43 27 97 5z m-4189 -236 c270 -9 282 -17 278 -212
-2 -55 -6 -77 -20 -91 -20 -20 -77 -39 -146 -47 -34 -5 -45 -9 -35 -15 11 -7
15 -46 16 -187 6 -385 24 -1022 32 -1097 10 -87 16 -96 77 -96 76 0 93 -36 94
-202 0 -94 -1 -99 -29 -130 l-29 -33 -254 -6 c-282 -7 -342 -2 -375 36 -25 29
-39 124 -30 219 5 51 10 65 36 88 18 16 47 29 74 33 l44 7 7 51 c13 108 -2
948 -17 963 -4 4 -14 -1 -22 -12 -19 -26 -19 -5 1 26 l16 25 -22 -24 c-11 -13
-18 -31 -15 -39 5 -13 -50 -112 -62 -112 -2 0 -1 6 3 13 4 6 -6 -1 -22 -16
-24 -23 -26 -29 -14 -37 13 -8 12 -10 -1 -15 -9 -3 -16 -11 -16 -18 0 -15 -33
-67 -42 -67 -4 0 -7 -10 -8 -22 -1 -12 -13 -31 -28 -43 -14 -12 -25 -26 -26
-31 0 -5 -18 -24 -41 -41 -74 -60 -114 -41 -224 104 -32 43 -61 80 -64 83 -3
3 -30 39 -58 80 -29 41 -56 73 -60 70 -4 -3 -5 -136 -3 -296 l3 -292 -31 -7
c-46 -10 -52 -28 -7 -23 l36 4 0 -76 c0 -110 8 -248 14 -259 3 -4 26 -14 50
-20 73 -18 86 -44 86 -171 0 -119 -1 -121 -75 -158 -37 -19 -62 -21 -295 -24
-271 -3 -287 -1 -311 45 -16 29 -24 215 -10 249 7 20 24 32 70 48 l59 22 7
116 c8 128 -3 1190 -14 1262 l-6 45 -49 7 c-75 10 -80 21 -84 149 -5 143 -1
155 46 170 60 18 527 -2 569 -24 25 -13 44 -40 82 -116 48 -95 193 -325 213
-337 13 -9 25 9 128 205 163 309 146 291 260 285 36 -2 145 -6 244 -9z m2032
-25 c43 -15 67 -52 119 -185 49 -127 111 -269 199 -458 25 -53 46 -99 46 -101
0 -3 18 -42 39 -88 21 -46 71 -155 111 -243 116 -258 122 -269 132 -227 11 48
-26 931 -40 943 -4 4 -24 9 -45 12 -55 7 -103 48 -110 94 -11 66 -8 172 7 208
25 59 29 60 378 60 394 0 364 14 361 -170 -1 -68 -6 -133 -12 -144 -16 -29
-44 -41 -113 -51 -34 -5 -65 -13 -70 -18 -5 -5 -4 -250 2 -573 5 -310 10 -674
10 -809 0 -337 17 -315 -250 -324 -160 -5 -191 2 -228 49 -20 26 -73 130 -162
320 -23 50 -68 144 -100 210 -32 66 -70 147 -84 180 -15 33 -31 67 -36 75 -5
8 -18 33 -27 55 -9 22 -59 124 -110 227 -51 103 -93 194 -93 202 0 8 -4 18
-10 21 -13 8 -14 -38 -11 -325 2 -283 20 -631 33 -647 6 -7 31 -13 57 -13 48
0 84 -17 101 -50 14 -26 33 -218 25 -258 -11 -60 -34 -63 -380 -60 -215 2
-307 6 -316 15 -16 16 -26 79 -35 203 -8 124 -1 137 81 142 l50 3 -3 168 c-3
135 -1 167 10 167 9 0 9 3 2 8 -8 5 -14 135 -19 422 -4 228 -10 455 -13 505
-6 79 -9 90 -27 93 -90 14 -110 53 -103 199 6 120 16 149 56 164 68 26 498 25
578 -1z m-907 4 c138 -8 146 -15 156 -143 10 -126 4 -132 -137 -142 -57 -4
-114 -8 -128 -8 l-25 -1 4 -342 c3 -189 6 -509 8 -713 4 -418 0 -395 84 -395
52 0 99 -14 111 -33 4 -7 8 -66 8 -132 0 -101 -3 -125 -19 -152 l-20 -32 -223
-3 c-123 -2 -274 -1 -336 2 -145 6 -147 9 -156 147 -3 54 -3 113 2 132 11 48
51 75 120 81 l57 5 2 685 c1 377 0 700 -3 718 l-5 32 -99 0 c-130 0 -134 3
-125 119 11 157 15 166 78 182 33 8 456 3 646 -7z"/>
<path d="M8981 4308 c-17 -45 -22 -86 -12 -92 6 -4 13 10 16 31 3 21 8 48 11
61 2 12 2 22 -1 22 -3 0 -9 -10 -14 -22z"/>
<path d="M8103 4228 c-4 -7 -6 -202 -5 -433 5 -660 7 -743 14 -750 3 -4 21 1
39 10 89 46 161 118 202 203 14 29 27 42 41 42 16 0 18 2 7 9 -12 8 -12 21 -1
86 16 94 7 267 -20 380 -12 53 -15 85 -9 97 7 13 4 20 -11 28 -11 6 -20 17
-20 25 0 7 -6 16 -12 18 -10 4 -9 8 2 16 16 11 15 13 -15 29 -11 6 -14 12 -7
12 17 0 15 25 -3 40 -8 7 -15 21 -15 31 0 10 -9 24 -20 31 -11 7 -20 18 -20
23 0 13 -52 63 -97 93 -36 26 -39 26 -50 10z"/>
<path d="M8560 4059 c0 -5 9 -9 20 -9 11 0 20 2 20 4 0 2 -9 6 -20 9 -11 3
-20 1 -20 -4z"/>
<path d="M8458 3293 c7 -3 16 -2 19 1 4 3 -2 6 -13 5 -11 0 -14 -3 -6 -6z"/>
<path d="M9592 3230 c0 -14 2 -19 5 -12 2 6 2 18 0 25 -3 6 -5 1 -5 -13z"/>
<path d="M3345 4050 c3 -5 8 -10 11 -10 2 0 4 5 4 10 0 6 -5 10 -11 10 -5 0
-7 -4 -4 -10z"/>
<path d="M6188 4623 c7 -3 16 -2 19 1 4 3 -2 6 -13 5 -11 0 -14 -3 -6 -6z"/>
<path d="M5958 4053 c7 -3 16 -2 19 1 4 3 -2 6 -13 5 -11 0 -14 -3 -6 -6z"/>
</g>
</svg>
